<?xml version="1.0" encoding="utf-8"?>
<!-- Generator: Adobe Illustrator 24.0.2, SVG Export Plug-In . SVG Version: 6.00 Build 0)  -->
<svg version="1.1" id="图层_1" xmlns="http://www.w3.org/2000/svg" xmlns:xlink="http://www.w3.org/1999/xlink" x="0px" y="0px"
	 viewBox="0 0 32 32" style="enable-background:new 0 0 32 32;" xml:space="preserve">
<style type="text/css">
	.st0{fill:url(#SVGID_1_);}
	.st1{fill:url(#SVGID_2_);}
</style>
<g>
	<g>
		<linearGradient id="SVGID_1_" gradientUnits="userSpaceOnUse" x1="0" y1="20.3158" x2="32" y2="20.3158">
			<stop  offset="0" style="stop-color:#FFFFFF"/>
			<stop  offset="1" style="stop-color:#C3CC15"/>
		</linearGradient>
		<path class="st0" d="M3.53,14.48c-5.55,2.63-3.77,16.74,0,17.49C8.77,33,15.63,7.84,23.84,8.65c6.08,0.6,10.55,15.23,6.77,17.49
			C25.89,28.95,10.72,11.08,3.53,14.48z"/>
		<linearGradient id="SVGID_2_" gradientUnits="userSpaceOnUse" x1="6.4202" y1="16" x2="27.0787" y2="16">
			<stop  offset="0" style="stop-color:#FFFFFF"/>
			<stop  offset="1" style="stop-color:#2DA541"/>
		</linearGradient>
		<path class="st1" d="M26.9,29.78c-1.32,2.58-10.16,3.33-13.54,0C6.67,23.19,25,4.25,20.13,0.63C17.43-1.39,7.98,1.67,6.6,6.46
			C4.09,15.13,29.41,24.89,26.9,29.78z"/>
	</g>
</g>
</svg>
